HIERARCHY
ROOT Hips
{
  OFFSET 1.44925e-005 102.336 -0.101585
  CHANNELS 6 Xposition Yposition Zposition Zrotation Xrotation Yrotation
  JOINT LeftUpLeg
  {
    OFFSET 8.9458 -8.66707 0.101652
    CHANNELS 3 Zrotation Xrotation Yrotation
    JOINT LeftLeg
    {
      OFFSET 0 -44.4227 1.3727
      CHANNELS 3 Zrotation Xrotation Yrotation
      JOINT LeftFoot
      {
        OFFSET -0.253549 -42.0924 -1.46059
        CHANNELS 3 Zrotation Xrotation Yrotation
        JOINT LeftToes
        {
          OFFSET -0.04 -4.41509 8.4991
          CHANNELS 3 Zrotation Xrotation Yrotation
          End Site
          {
            OFFSET 0.08 -0.047448 9.77979
          }
        }
      }
    }
  }
  JOINT Spine
  {
    OFFSET 0 11.8905 0
    CHANNELS 3 Zrotation Xrotation Yrotation
    JOINT Spine1
    {
      OFFSET 0 25.6574 0.127663
      CHANNELS 3 Zrotation Xrotation Yrotation
      JOINT RightShoulder
      {
        OFFSET -8.99 -0.362252 -0.22
        CHANNELS 3 Zrotation Xrotation Yrotation
        JOINT RightArm
        {
          OFFSET -10.2827 -0.00338 0.322123
          CHANNELS 3 Zrotation Xrotation Yrotation
          JOINT RightForeArm
          {
            OFFSET -26.364 0.099144 -1.42434
            CHANNELS 3 Zrotation Xrotation Yrotation
            JOINT RightHand
            {
              OFFSET -22.0324 0.085362 1.02216
              CHANNELS 3 Zrotation Xrotation Yrotation
              End Site
              {
                OFFSET -13.3284 -0.6 1.50291
              }
            }
          }
        }
      }
      JOINT LeftShoulder1
      {
        OFFSET 8.99 -0.362252 -0.22
        CHANNELS 3 Zrotation Xrotation Yrotation
        JOINT LeftArm
        {
          OFFSET 10.2827 -0.00337999 0.322123
          CHANNELS 3 Zrotation Xrotation Yrotation
          JOINT LeftForeArm
          {
            OFFSET 26.2597 0.099144 -1.42434
            CHANNELS 3 Zrotation Xrotation Yrotation
            JOINT LeftHand
            {
              OFFSET 22.0902 0.085362 1.02216
              CHANNELS 3 Zrotation Xrotation Yrotation
              End Site
              {
                OFFSET 13.419 -0.6 1.50291
              }
            }
          }
        }
      }
      JOINT Head
      {
        OFFSET 0 8.73416 0.011341
        CHANNELS 3 Zrotation Xrotation Yrotation
        End Site
        {
          OFFSET -0.29 12.7742 2.51395
        }
      }
    }
  }
  JOINT RightUpLeg
  {
    OFFSET -8.9458 -8.66707 0.101652
    CHANNELS 3 Zrotation Xrotation Yrotation
    JOINT RightLeg
    {
      OFFSET 0 -44.4227 1.3727
      CHANNELS 3 Zrotation Xrotation Yrotation
      JOINT RightFoot
      {
        OFFSET 0.253549 -42.0924 -1.46059
        CHANNELS 3 Zrotation Xrotation Yrotation
        JOINT RightToes
        {
          OFFSET 0.04 -4.41509 8.4991
          CHANNELS 3 Zrotation Xrotation Yrotation
          End Site
          {
            OFFSET -0.08 -0.137448 9.77979
          }
        }
      }
    }
  }
}
MOTION
Frames:	10
Frame Time:	0.0333333
189.301 103.118 5.24226 -1.58193 -0.383513 -90.9689 -2.12293 0.392711 0.363091 0.642769 8.20546 14.2018 -1.54353 -11.2058 0.00877438 -1.35538e-009 8.75213e-006 -1.47543e-008 -0.1665 6.91455 -0.212742 -0.395133 -5.06972 -0.0962762 35.8094 1.6743 -0.0252945 42.0453 -15.5309 3.03466 7.0795 37.2679 10.1443 -9.63514 9.39757 1.14399 -43.7238 3.48281 -3.40715 -27.4399 -5.97439 6.68278 -1.10109 27.1831 -21.0525 5.82328 9.61819 -0.917488 1.50458 -1.02732 -0.454707 0.388472 0.86514 -2.89775 -0.302366 9.50495 -10.5778 1.93994 -13.0451 -0.109709 0.0462048 0.000530889 0.662642 
189.334 103.118 5.28355 -1.61078 -0.376726 -90.9581 -2.13959 0.394462 0.352202 0.639937 8.21569 14.1986 -1.54697 -11.1939 0.00877402 -1.35538e-009 8.75213e-006 -1.47543e-008 -0.219179 6.93549 -0.199523 -0.293423 -5.02875 -0.097937 35.7881 1.67673 -0.0216064 42.0136 -15.2163 3.09885 7.0292 37.0369 10.29 -9.8419 9.38283 1.18516 -43.7687 3.48281 -3.40715 -27.4235 -6.1062 6.51661 -1.1549 27.3718 -20.901 5.82328 9.61819 -0.917488 1.3311 -1.79488 -0.151356 0.385612 0.882784 -2.87907 -0.338895 9.49608 -10.5663 1.99761 -13.022 -0.109699 0.0462048 0.000530889 0.662642 
189.414 103.118 5.36171 -1.63977 -0.355502 -90.9526 -2.14484 0.358997 0.366903 0.602738 8.24563 14.1726 -1.52023 -11.1846 0.00877374 -1.35538e-009 8.75213e-006 -1.47543e-008 -0.243177 7.08067 -0.23533 -0.259632 -5.13636 -0.141465 35.9732 1.68849 -0.00743209 41.7538 -14.6879 3.19701 6.97488 36.4709 10.5257 -10.0952 9.39071 0.900598 -43.7762 3.48056 -3.40671 -27.415 -6.24008 6.43239 -1.14817 27.557 -20.8304 5.82328 9.61819 -0.917488 0.947141 -3.53142 -0.83197 0.374752 0.868703 -2.86003 -0.371844 9.49837 -10.5136 2.07915 -12.991 -0.10907 0.0462048 0.000530889 0.662642 
189.509 103.117 5.44719 -1.64132 -0.340418 -90.9718 -2.14404 0.280261 0.404921 0.529279 8.29165 14.1466 -1.45233 -11.1956 0.00877407 -1.35538e-009 8.75213e-006 -1.47543e-008 -0.157876 7.38274 -0.299325 -0.42447 -5.48077 -0.184723 36.2603 1.7028 0.0019909 41.4289 -14.0085 3.17663 6.83305 35.7576 10.9187 -10.0379 9.42696 0.475532 -43.6163 3.46719 -3.4025 -27.5381 -6.28903 6.5195 -1.0531 27.663 -20.9059 5.82328 9.61819 -0.917488 -0.347143 -5.91028 -2.19382 0.329752 0.783337 -2.88274 -0.365153 9.5586 -10.3978 2.12732 -12.988 -0.106505 0.0462048 0.000530889 0.662642 
189.602 103.111 5.53622 -1.58876 -0.350324 -91.0282 -2.18091 0.131714 0.404289 0.46223 8.36738 14.1983 -1.37414 -11.2206 0.0089328 -1.35538e-009 8.75213e-006 -1.47543e-008 -0.0322328 7.6394 -0.293624 -0.628857 -5.80996 -0.149315 36.3385 1.7021 -0.00630656 41.3304 -13.2668 3.06818 6.65718 34.9928 11.3831 -9.77414 9.45899 0.231711 -43.3914 3.44461 -3.39126 -27.7572 -6.25557 6.50697 -1.03795 27.81 -20.8678 5.82328 9.61819 -0.917488 -1.63619 -6.75918 -3.0052 0.228554 0.592764 -2.94851 -0.332131 9.70219 -10.2316 2.16133 -13.0129 -0.103618 0.0462048 0.000530889 0.662642 
189.691 103.101 5.64038 -1.47524 -0.365556 -91.0909 -2.25731 -0.101176 0.337267 0.437869 8.47921 14.3287 -1.32182 -11.2484 0.0095483 -1.35538e-009 8.75213e-006 -1.47543e-008 0.0109579 7.54266 -0.211802 -0.640557 -5.71517 -0.0620319 36.1606 1.68956 -0.0208271 41.4699 -12.9229 3.12812 6.62513 34.497 11.5764 -9.63542 9.466 0.233837 -43.4038 3.44167 -3.38353 -27.7985 -6.19406 6.20412 -1.21777 28.0096 -20.5708 5.82328 9.61819 -0.917488 -0.943377 -6.39404 -2.8049 0.096045 0.323076 -3.025 -0.286603 9.87125 -10.0727 2.22423 -13.0333 -0.100671 0.0462048 0.000530889 0.662642 
189.768 103.092 5.75004 -1.36328 -0.343489 -91.1136 -2.30086 -0.327226 0.283716 0.431288 8.59338 14.4086 -1.3092 -11.285 0.0101449 -1.35538e-009 8.75213e-006 -1.47543e-008 -0.0230856 7.14681 -0.168716 -0.498168 -5.23548 -0.0368882 36.0383 1.68451 -0.0224125 41.575 -13.2841 3.4258 6.71726 34.7611 11.3705 -9.56934 9.456 0.417188 -43.6961 3.46358 -3.383 -27.5572 -6.26378 5.84626 -1.45166 28.2055 -20.214 5.82328 9.61819 -0.917488 0.508751 -5.57285 -2.11203 0.0113642 0.107827 -3.06541 -0.243649 9.95699 -10.0023 2.30784 -13.0181 -0.0979444 0.0462048 0.000530889 0.662642 
189.817 103.089 5.83485 -1.33576 -0.276291 -91.1222 -2.25016 -0.418613 0.345897 0.384322 8.6661 14.3527 -1.3269 -11.3347 0.0107339 -1.35538e-009 8.75213e-006 -1.47543e-008 -0.0118471 6.95698 -0.215783 -0.463805 -5.0096 -0.0913012 36.1985 1.69399 -0.0135597 41.4757 -13.9219 3.62181 6.72644 35.6939 11.0861 -9.26867 9.44892 0.713597 -43.8975 3.47888 -3.38191 -27.3502 -6.5004 5.83063 -1.53511 28.384 -20.0427 5.82328 9.61819 -0.917488 0.496249 -5.70913 -2.15447 0.0360864 0.0596837 -3.02337 -0.248973 9.92418 -10.0464 2.37886 -12.9625 -0.095661 0.0462048 0.000530889 0.662642 
189.843 103.088 5.89117 -1.38873 -0.201065 -91.1987 -2.14877 -0.380167 0.499037 0.292089 8.69547 14.2645 -1.3454 -11.3793 0.0113256 -1.35538e-009 8.75213e-006 -1.47543e-008 0.0727016 7.27369 -0.257657 -0.585683 -5.4367 -0.121036 36.414 1.70164 -0.0137774 41.3442 -14.2053 3.44124 6.60487 36.4773 11.0367 -8.86295 9.45265 0.973472 -43.7805 3.46955 -3.38268 -27.4547 -6.68214 6.19646 -1.49289 28.5224 -20.0366 5.82328 9.61819 -0.917488 -0.891439 -6.49889 -2.96161 0.131249 0.120462 -2.9029 -0.330703 9.85654 -10.1123 2.4501 -12.8922 -0.0928757 0.0462048 0.000530889 0.662642 
189.872 103.089 5.95467 -1.4448 -0.151368 -91.3572 -2.10014 -0.329448 0.608018 0.220447 8.70958 14.3017 -1.33005 -11.4023 0.0119304 -1.35538e-009 8.75213e-006 -1.47543e-008 0.0864337 7.69875 -0.219718 -0.570782 -5.97514 -0.0907043 36.2976 1.69501 -0.0195622 41.4879 -14.1567 3.14598 6.53537 36.5653 11.1111 -8.813 9.45202 1.02882 -43.6372 3.46293 -3.3909 -27.6756 -6.69336 6.5731 -1.4866 28.6032 -20.0158 5.82328 9.61819 -0.917488 -1.5041 -6.56565 -3.29755 0.187879 0.151436 -2.79313 -0.429436 9.8451 -10.0633 2.55317 -12.847 -0.0890506 0.0462048 0.000530889 0.662642 
